<svg width="23" height="20" viewBox="0 0 23 20" fill="none" xmlns="http://www.w3.org/2000/svg">
<path d="M3.68544 9.00971L11.5095 16.8338L19.3336 9.00971C20.0254 8.31796 20.414 7.37975 20.414 6.40147C20.414 5.42319 20.0254 4.48498 19.3336 3.79323C18.9911 3.45071 18.5845 3.17901 18.137 2.99364C17.6894 2.80827 17.2098 2.71286 16.7254 2.71286C15.7471 2.71286 14.8089 3.10148 14.1172 3.79323L11.5095 6.40085L8.90192 3.79446C8.20841 3.11199 7.27332 2.73121 6.30033 2.73506C5.32734 2.7389 4.39529 3.12707 3.7072 3.815C3.01911 4.50293 2.63073 5.43489 2.62665 6.40787C2.62257 7.38086 3.00314 8.31604 3.68544 9.00971ZM10.6403 2.05359L11.5095 2.92279L12.3787 2.05359C12.9487 1.47867 13.6265 1.02197 14.3734 0.709729C15.1203 0.397484 15.9215 0.235835 16.731 0.234062C17.5405 0.23229 18.3424 0.390428 19.0906 0.6994C19.8389 1.00837 20.5187 1.46209 21.0911 2.03451C21.6636 2.60693 22.1173 3.28677 22.4262 4.03501C22.7352 4.78325 22.8934 5.58514 22.8916 6.39466C22.8898 7.20418 22.7282 8.00538 22.4159 8.75226C22.1037 9.49914 21.647 10.177 21.0721 10.7469L12.38 19.4402C12.2658 19.5545 12.1302 19.6452 11.981 19.7071C11.8317 19.7689 11.6717 19.8008 11.5102 19.8008C11.3486 19.8008 11.1886 19.7689 11.0394 19.7071C10.8901 19.6452 10.7545 19.5545 10.6403 19.4402L1.94702 10.7481C1.36429 10.18 0.900147 9.50192 0.58153 8.75307C0.262913 8.00423 0.0961606 7.19957 0.0909465 6.38577C0.0857324 5.57198 0.24216 4.76525 0.551155 4.01238C0.86015 3.25951 1.31556 2.57549 1.89097 2C2.46638 1.42451 3.15034 0.969001 3.90316 0.659899C4.65599 0.350797 5.4627 0.194256 6.27649 0.199355C7.09029 0.204454 7.89497 0.371092 8.64386 0.689603C9.39275 1.00811 10.0709 1.47216 10.6391 2.05481L10.6403 2.05359Z" fill="#181725"/>
</svg>
