<svg width="17" height="21" viewBox="0 0 17 21" fill="none" xmlns="http://www.w3.org/2000/svg">
<path d="M4.616 10.5881C4.75683 10.5356 4.90827 10.5083 5.06138 10.5078C5.21449 10.5074 5.36616 10.5337 5.50741 10.5853C5.64867 10.6368 5.77666 10.7126 5.8838 10.8081C5.99094 10.9036 6.07507 11.0168 6.1312 11.1412C6.18734 11.2656 6.21435 11.3985 6.21063 11.5321C6.20691 11.6657 6.17255 11.7974 6.10957 11.9192C6.04658 12.041 5.95626 12.1506 5.84394 12.2415C5.73161 12.3323 5.59957 12.4025 5.45561 12.4481C4.68993 12.7114 4.03277 13.1699 3.56964 13.7638C3.10651 14.3577 2.85885 15.0596 2.85888 15.7781V17.5181C2.85888 17.7833 2.97956 18.0376 3.19438 18.2252C3.40919 18.4127 3.70054 18.5181 4.00433 18.5181H13.1679C13.4717 18.5181 13.763 18.4127 13.9778 18.2252C14.1927 18.0376 14.3133 17.7833 14.3133 17.5181V15.8711C14.3135 15.1295 14.0555 14.4055 13.5735 13.7949C13.0916 13.1843 12.4084 12.716 11.6147 12.4521C11.4698 12.4082 11.3365 12.3394 11.2227 12.2497C11.1089 12.16 11.0169 12.0513 10.9521 11.9299C10.8873 11.8086 10.851 11.6772 10.8455 11.5434C10.84 11.4096 10.8653 11.2763 10.9199 11.1512C10.9745 11.0261 11.0573 10.9119 11.1634 10.8152C11.2695 10.7186 11.3968 10.6416 11.5376 10.5887C11.6785 10.5358 11.8301 10.5081 11.9834 10.5074C12.1367 10.5066 12.2887 10.5326 12.4302 10.5841C13.6577 10.9922 14.7141 11.7164 15.4595 12.6606C16.2049 13.6047 16.6041 14.7244 16.6042 15.8711V17.5181C16.6042 18.3137 16.2422 19.0768 15.5978 19.6394C14.9533 20.202 14.0793 20.5181 13.1679 20.5181H4.00433C3.09296 20.5181 2.21891 20.202 1.57447 19.6394C0.930035 19.0768 0.567993 18.3137 0.567993 17.5181L0.567993 15.7781C0.568151 14.6582 0.954325 13.5643 1.67628 12.6387C2.39824 11.7131 3.42256 10.9985 4.616 10.5881ZM8.58611 0.518066C9.80128 0.518066 10.9667 0.939494 11.8259 1.68964C12.6852 2.43978 13.1679 3.4572 13.1679 4.51807V6.51807C13.1679 7.57893 12.6852 8.59635 11.8259 9.34649C10.9667 10.0966 9.80128 10.5181 8.58611 10.5181C7.37095 10.5181 6.20555 10.0966 5.3463 9.34649C4.48705 8.59635 4.00433 7.57893 4.00433 6.51807V4.51807C4.00433 3.4572 4.48705 2.43978 5.3463 1.68964C6.20555 0.939494 7.37095 0.518066 8.58611 0.518066ZM8.58611 2.51807C7.97853 2.51807 7.39583 2.72878 6.96621 3.10385C6.53658 3.47893 6.29522 3.98763 6.29522 4.51807V6.51807C6.29522 7.0485 6.53658 7.55721 6.96621 7.93228C7.39583 8.30735 7.97853 8.51807 8.58611 8.51807C9.19369 8.51807 9.77639 8.30735 10.206 7.93228C10.6356 7.55721 10.877 7.0485 10.877 6.51807V4.51807C10.877 3.98763 10.6356 3.47893 10.206 3.10385C9.77639 2.72878 9.19369 2.51807 8.58611 2.51807Z" fill="#181725"/>
</svg>
